<?xml version="1.0" encoding="utf-8"?><!-- Uploaded to: SVG Repo, www.svgrepo.com, Generator: SVG Repo Mixer Tools -->
<svg fill="#000000" width="800px" height="800px" viewBox="0 0 24 24" id="telephone" data-name="Flat Line" xmlns="http://www.w3.org/2000/svg" class="icon flat-line"><path id="secondary" d="M9,4H20a1,1,0,0,1,1,1V16a1,1,0,0,1-1,1H9a0,0,0,0,1,0,0V4A0,0,0,0,1,9,4Z" style="fill: rgb(44, 169, 188); stroke-width: 2;"></path><path id="primary" d="M6,18v2a1,1,0,0,0,1,1h7a1,1,0,0,0,1-1V17" style="fill: none; stroke: rgb(0, 0, 0); stroke-linecap: round; stroke-linejoin: round; stroke-width: 2;"></path><path id="primary-2" data-name="primary" d="M13,8h4m4,8V5a1,1,0,0,0-1-1H9V17H20A1,1,0,0,0,21,16ZM8,18H4a1,1,0,0,1-1-1V4A1,1,0,0,1,4,3H8A1,1,0,0,1,9,4V17A1,1,0,0,1,8,18Z" style="fill: none; stroke: rgb(0, 0, 0); stroke-linecap: round; stroke-linejoin: round; stroke-width: 2;"></path></svg>