<?xml version="1.0" encoding="iso-8859-1"?>
<!-- Uploaded to: SVG Repo, www.svgrepo.com, Generator: SVG Repo Mixer Tools -->
<svg height="800px" width="800px" version="1.1" id="Layer_1" xmlns="http://www.w3.org/2000/svg" xmlns:xlink="http://www.w3.org/1999/xlink" 
	 viewBox="0 0 512.349 512.349" xml:space="preserve">
<g transform="translate(1)">
	<path style="fill:#FDCC00;" d="M468.333,341.508H24.6c-9.387,0-17.067-7.68-17.067-17.067v-17.067h494.933
		C502.467,326.148,487.107,341.508,468.333,341.508"/>
	<g>
		<path style="fill:#FFE100;" d="M7.533,307.375c0-58.027,34.133-110.933,34.133-110.933l205.653,49.493l-34.987,61.44H7.533z"/>
		<path style="fill:#FFE100;" d="M212.333,307.375L280.6,187.908c20.48,13.653,48.64,27.307,71.68,38.4
			c23.893,11.093,48.64,18.773,73.387,26.453c36.693,10.24,61.44,29.867,74.24,42.667c4.267,4.267,1.707,11.947-5.12,11.947H212.333
			z"/>
	</g>
	<g>
		<path style="fill:#63D3FD;" d="M352.28,226.308c-9.387-4.267-19.627-9.387-29.013-14.507l-59.733,95.573h51.2l47.787-76.8
			C359.107,229.721,355.693,228.015,352.28,226.308"/>
		<path style="fill:#63D3FD;" d="M362.52,230.575l-47.787,76.8h51.2l38.4-61.44C389.827,241.668,376.173,236.548,362.52,230.575"/>
		<path style="fill:#63D3FD;" d="M425.667,252.761c-7.68-1.707-14.507-4.267-22.187-6.827l-37.547,61.44h51.2L447,259.588
			C440.173,257.028,433.347,254.468,425.667,252.761"/>
		<polygon style="fill:#63D3FD;" points="104.813,211.801 45.08,307.375 96.28,307.375 149.187,222.041 		"/>
		<polygon style="fill:#63D3FD;" points="149.187,222.041 96.28,307.375 147.48,307.375 193.56,233.135 		"/>
	</g>
	<g>
		<path style="fill:#FFA800;" d="M400.067,252.761c36.693,10.24,61.44,29.867,74.24,42.667c4.267,4.267,1.707,11.947-5.12,11.947
			h25.6c5.973,0,9.387-7.68,5.12-11.947c-12.8-12.8-37.547-33.28-74.24-42.667H400.067z"/>
		<path style="fill:#FFA800;" d="M476.867,307.375c0,18.773-15.36,34.133-34.133,34.133h25.6c18.773,0,34.133-15.36,34.133-34.133
			H476.867z"/>
	</g>
	<g>
		<path style="fill:#FFFFFF;" d="M41.667,196.441c0,0-34.133,53.76-34.133,110.933h25.6c0-46.933,22.187-90.453,30.72-105.813
			L41.667,196.441z"/>
		<path style="fill:#FFFFFF;" d="M33.133,324.441v-17.067h-25.6v17.067c0,9.387,7.68,17.067,17.067,17.067h25.6
			C40.813,341.508,33.133,333.828,33.133,324.441"/>
	</g>
	<path d="M212.333,315.908H7.533c-5.12,0-8.533-3.413-8.533-8.533c0-59.733,34.133-113.493,35.84-115.2
		c1.707-3.413,5.12-5.12,8.533-4.267l205.653,49.493c2.56,0.853,5.12,2.56,5.973,5.12s0.853,5.12,0,7.68l-34.987,61.44
		C218.307,314.201,215.747,315.908,212.333,315.908z M16.067,298.841h191.147l27.307-46.933l-188.587-46.08
		C38.253,219.481,18.627,257.881,16.067,298.841z"/>
	<path d="M495.64,315.908H212.333c-3.413,0-5.973-1.707-7.68-4.267c-1.707-2.56-1.707-5.973,0-8.533l68.267-119.467
		c0.853-1.707,3.413-3.413,5.12-4.267c2.56,0,5.12,0,6.827,1.707c17.067,11.093,40.96,23.893,70.827,38.4
		c20.48,9.387,42.667,17.92,72.533,25.6c37.547,10.24,63.147,29.867,78.507,45.227c4.267,4.267,5.973,11.093,3.413,17.067
		C507.587,312.495,501.613,315.908,495.64,315.908z M226.84,298.841h264.533c-11.947-11.093-34.987-29.013-67.413-37.547
		c-29.867-8.533-53.76-17.067-75.093-26.453c-26.453-12.8-48.64-23.893-64.853-34.133L226.84,298.841z"/>
	<path d="M468.333,350.041H24.6c-14.507,0-25.6-11.093-25.6-25.6v-17.067c0-5.12,3.413-8.533,8.533-8.533h494.933
		c5.12,0,8.533,3.413,8.533,8.533C511,331.268,492.227,350.041,468.333,350.041z M16.067,315.908v8.533
		c0,5.12,3.413,8.533,8.533,8.533h443.733c11.093,0,20.48-6.827,23.893-17.067H16.067z"/>
	<path d="M41.667,204.975c-18.773,0-34.133-15.36-34.133-34.133c0-5.12,3.413-8.533,8.533-8.533s8.533,3.413,8.533,8.533
		c0,9.387,7.68,17.067,17.067,17.067c5.12,0,8.533,3.413,8.533,8.533C50.2,201.561,46.787,204.975,41.667,204.975z"/>
	<path d="M314.733,315.908h-51.2c-3.413,0-5.973-1.707-7.68-4.267c-1.707-2.56-1.707-5.973,0-8.533l59.733-95.573
		c2.56-3.413,6.827-5.12,11.093-3.413c9.387,4.267,18.773,9.387,29.013,14.507c2.56,0.853,4.267,1.707,6.827,3.413l3.413,0.853
		c2.56,0.853,4.267,2.56,5.12,5.12c0.853,2.56,0,5.12-0.853,6.827l-47.787,76.8C320.707,314.201,317.293,315.908,314.733,315.908z
		 M278.893,298.841h30.72l40.107-64c0,0-0.853,0-0.853-0.853c-7.68-3.413-15.36-7.68-23.04-11.093L278.893,298.841z"/>
	<path d="M365.933,315.908h-51.2c-3.413,0-5.973-1.707-7.68-4.267c-1.707-2.56-1.707-5.973,0-8.533l47.787-76.8
		c2.56-3.413,6.827-5.12,11.093-3.413c12.8,5.12,26.453,10.24,40.96,15.36c2.56,0.853,4.267,2.56,5.12,5.12s0.853,5.12-0.853,7.68
		l-38.4,61.44C371.907,314.201,368.493,315.908,365.933,315.908z M330.093,298.841h30.72l29.867-47.787
		c-8.533-2.56-17.067-5.973-25.6-9.387L330.093,298.841z"/>
	<path d="M417.133,315.908h-51.2c-3.413,0-5.973-1.707-7.68-4.267c-1.707-2.56-1.707-5.973,0-8.533l38.4-61.44
		c1.707-3.413,5.973-5.12,9.387-3.413c6.827,2.56,14.507,4.267,21.333,5.973s13.653,4.267,22.187,7.68
		c2.56,0.853,4.267,2.56,5.12,5.12c0.853,2.56,0,5.12-0.853,6.827l-29.867,47.787C423.107,314.201,419.693,315.908,417.133,315.908z
		 M381.293,298.841h30.72l21.333-34.987c-3.413-0.853-6.827-2.56-10.24-3.413c-5.12-1.707-10.24-3.413-16.213-4.267L381.293,298.841
		z"/>
	<path d="M96.28,315.908h-51.2c-3.413,0-5.973-1.707-7.68-4.267c-1.707-2.56-1.707-5.973,0-8.533l59.733-95.573
		c1.707-3.413,5.973-4.267,9.387-3.413l44.373,11.093c2.56,0.853,5.12,2.56,5.973,5.12c0.853,2.56,0.853,5.12-0.853,7.68
		l-52.907,85.333C102.253,314.201,98.84,315.908,96.28,315.908z M60.44,298.841h30.72l44.373-70.827l-27.307-6.827L60.44,298.841z"
		/>
	<path d="M147.48,315.908h-51.2c-3.413,0-5.973-1.707-7.68-4.267s-1.707-5.973,0-8.533l52.907-85.333
		c2.56-3.413,5.973-4.267,10.24-3.413l44.373,11.093c2.56,0.853,5.12,2.56,5.973,5.12s0.853,5.12-0.853,7.68l-46.08,74.24
		C153.453,314.201,150.04,315.908,147.48,315.908z M111.64,298.841h30.72l37.547-60.587l-27.307-6.827L111.64,298.841z"/>
</g>
</svg>