<?xml version="1.0" encoding="iso-8859-1"?>
<!-- Uploaded to: SVG Repo, www.svgrepo.com, Generator: SVG Repo Mixer Tools -->
<svg version="1.1" id="Layer_1" xmlns="http://www.w3.org/2000/svg" xmlns:xlink="http://www.w3.org/1999/xlink" 
	 viewBox="0 0 512 512" xml:space="preserve">
<path style="fill:#F23B3B;" d="M425.2,340c0-17.6,14.4-32,32-32c17.6,0,32,14.4,32,32s-14.4,32-32,32C439.6,372,425.2,358,425.2,340
	z"/>
<path style="fill:#EAAA0A;" d="M456,264v24h-16c-8.8,0-16-7.2-16-16v-8H456z"/>
<path style="fill:#424242;" d="M425.2,340c0,17.6,14.4,32,32,32c17.6,0,32-14.4,32-32s-14.4-32-32-32
	C439.6,308,425.2,322.4,425.2,340z M440,288h16h16c8.8,0,16-7.2,16-16v-8v-24v-24v-8c0-8.8-7.2-16-16-16h-16h-16
	c-8.8,0-16,7.2-16,16v8v24v24v8C424,280.8,431.2,288,440,288z M508,121.6V420c0,0-12.4,0-28.4,0H404v-4V92h75.6
	C495.6,92,508,105.6,508,121.6z M488,176v-36h-64v36H488z"/>
<path style="fill:#F23B3B;" d="M488,208v8h-32v-24h16C480.8,192,488,199.2,488,208z"/>
<g>
	<rect x="456" y="240" style="fill:#B7E3E5;" width="32" height="24"/>
	<rect x="424" y="240" style="fill:#B7E3E5;" width="32" height="24"/>
	<path style="fill:#B7E3E5;" d="M456,192v24h-32v-8c0-8.8,7.2-16,16-16H456z"/>
	<rect x="456" y="216" style="fill:#B7E3E5;" width="32" height="24"/>
	<rect x="424" y="216" style="fill:#B7E3E5;" width="32" height="24"/>
</g>
<path style="fill:#C4EFF2;" d="M316,140c8.8,0,16,7.2,16,16v200c0,8.8-7.2,16-16,16h-42.8H68c-8.8,0-16-7.2-16-16V156
	c0-8.8,7.2-16,16-16H316z"/>
<path style="fill:#515151;" d="M376,312c0,4.4-3.6,8-8,8s-8-3.6-8-8V200c0-4.4,3.6-8,8-8s8,3.6,8,8V312z"/>
<path style="fill:#424242;" d="M360,312c0,4.4,3.6,8,8,8s8-3.6,8-8V200c0-4.4-3.6-8-8-8s-8,3.6-8,8V312z M273.2,372H316
	c8.8,0,16-7.2,16-16V156c0-8.8-7.2-16-16-16H68c-8.8,0-16,7.2-16,16v200c0,8.8,7.2,16,16,16H273.2z M404,416v4H34.8
	C18.4,420,4,420,4,420V121.6C4,105.2,18.4,92,34.8,92H404V416z"/>
<rect x="424" y="140" style="fill:#58595B;" width="64" height="36"/>
<path style="fill:#B7E3E5;" d="M488,272c0,8.8-7.2,16-16,16h-16v-24h32V272z"/>
<path d="M508,424H4c-2.4,0-4-1.6-4-4V121.6C0,103.2,16,88,34.8,88h444.8c18.4,0,32.4,14.8,32.4,33.6V420
	C512,422.4,510.4,424,508,424z M8,416h496V121.6c0-14.4-10.8-25.6-24.4-25.6H34.8C20.4,96,8,108,8,121.6L8,416L8,416z"/>
<path d="M404,420c-2.4,0-4-1.6-4-4V92c0-2.4,1.6-4,4-4s4,1.6,4,4v324C408,418.4,406.4,420,404,420z"/>
<path d="M488,180h-64c-2.4,0-4-1.6-4-4v-36c0-2.4,1.6-4,4-4h64c2.4,0,4,1.6,4,4v36C492,178.4,490.4,180,488,180z M428,172h56v-28
	h-56V172z"/>
<path d="M472,292h-32c-11.2,0-20-8.8-20-20v-64c0-11.2,8.8-20,20-20h32c11.2,0,20,8.8,20,20v64C492,283.2,483.2,292,472,292z
	 M440,196c-6.8,0-12,5.2-12,12v64c0,6.8,5.2,12,12,12h32c6.8,0,12-5.2,12-12v-64c0-6.8-5.2-12-12-12H440z"/>
<path d="M368,324c-6.8,0-12-5.2-12-12V200c0-6.8,5.2-12,12-12s12,5.2,12,12v112C380,318.8,374.8,324,368,324z M368,196
	c-2.4,0-4,1.6-4,4v112c0,2.4,1.6,4,4,4s4-1.6,4-4V200C372,197.6,370.4,196,368,196z"/>
<path d="M316,376H68c-11.2,0-20-8.8-20-20V156c0-11.2,8.8-20,20-20h248c11.2,0,20,8.8,20,20v200C336,367.2,327.2,376,316,376z
	 M68,144c-6.8,0-12,5.2-12,12v200c0,6.8,5.2,12,12,12h248c6.8,0,12-5.2,12-12V156c0-6.8-5.2-12-12-12H68z"/>
<path d="M488,244h-64c-2.4,0-4-1.6-4-4s1.6-4,4-4h64c2.4,0,4,1.6,4,4S490.4,244,488,244z"/>
<path d="M488,268h-64c-2.4,0-4-1.6-4-4s1.6-4,4-4h64c2.4,0,4,1.6,4,4S490.4,268,488,268z"/>
<path d="M488,220h-64c-2.4,0-4-1.6-4-4s1.6-4,4-4h64c2.4,0,4,1.6,4,4S490.4,220,488,220z"/>
<path d="M456,292c-2.4,0-4-1.6-4-4v-96c0-2.4,1.6-4,4-4s4,1.6,4,4v96C460,290.4,458.4,292,456,292z"/>
<path d="M457.2,376c-20,0-36-16-36-36s16-36,36-36s36,16,36,36S477.2,376,457.2,376z M457.2,312c-15.6,0-28,12.4-28,28
	s12.4,28,28,28c15.6,0,28-12.4,28-28C485.2,324.8,472.8,312,457.2,312z"/>
<path d="M457.2,360c-11.2,0-20-8.8-20-20s8.8-20,20-20c2.4,0,4,1.6,4,4s-1.6,4-4,4c-6.8,0-12,5.6-12,12c0,6.8,5.6,12,12,12
	c6.8,0,12-5.2,12-12c0-2.4,1.6-4,4-4s4,1.6,4,4C477.2,351.2,468.4,360,457.2,360z"/>
<path d="M153.2,212c-1.2,0-2-0.4-2.8-1.2l-66-66c-1.6-1.6-1.6-4,0-5.6s4-1.6,5.6,0l66,66c1.6,1.6,1.6,4,0,5.6
	C155.2,211.6,154,212,153.2,212z"/>
<path d="M213.2,272c-1.2,0-2-0.4-2.8-1.2l-40-40c-1.6-1.6-1.6-4,0-5.6s4-1.6,5.6,0l40,40c1.6,1.6,1.6,4,0,5.6
	C215.2,271.6,214,272,213.2,272z"/>
<path d="M270.8,374.8L130.4,234.4c-1.6-1.6-1.6-4,0-5.6s4-1.6,5.6,0l140.4,140.4l-2.8,2.8L270.8,374.8z"/>
</svg>